<svg xmlns="http://www.w3.org/2000/svg" viewBox="0 0 201.6 71.27"><defs><style>.cls-1{fill:#096;}.cls-2{fill:#d8262d;}</style></defs><title>logo</title><g id="Layer_2" data-name="Layer 2"><g id="Layer_1-2" data-name="Layer 1"><path class="cls-1" d="M112.33,0C84.73,0,60.06,6,43.68,15.41,59.6,9.09,80.23,5.28,102.77,5.28c50.36,0,91.18,19,91.18,42.51,0,8.68-5.59,16.75-15.17,23.48C193,63.7,201.6,53.7,201.6,42.74,201.6,19.13,161.63,0,112.33,0Z"/><path class="cls-2" d="M6.24,29.25H11a4,4,0,0,1-4.22,2.66,4.88,4.88,0,0,1-3.4-1.16,4.14,4.14,0,0,1,.21-6.16,4.91,4.91,0,0,1,3.19-1,5,5,0,0,1,4,1.86l.08.1,1.85-1-.11-.14a7,7,0,0,0-5.69-2.82A7.13,7.13,0,0,0,2.14,23.1,5.83,5.83,0,0,0,0,27.73a5.81,5.81,0,0,0,2.12,4.65,7,7,0,0,0,4.63,1.57,6.79,6.79,0,0,0,4.87-1.76,6.1,6.1,0,0,0,1.85-4.61v-.32H6.24Z"/><path class="cls-2" d="M26.51,28.06a3.65,3.65,0,0,0,.79-2.44,3.82,3.82,0,0,0-1-2.73,3.51,3.51,0,0,0-2.65-1H15.41V33.61h2V29.25h5l2.79,4.36H27.5l-2.79-4.5A3.25,3.25,0,0,0,26.51,28.06Zm-9.1-4.18h5.85c1.33,0,2,.57,2,1.74s-.6,1.62-1.83,1.62h-6Z"/><path class="cls-2" d="M39.09,29.31a2.17,2.17,0,0,1-1,1.93,5.32,5.32,0,0,1-3,.69,5.39,5.39,0,0,1-3-.69,2.16,2.16,0,0,1-1-1.93V21.88h-2v7.89a3.57,3.57,0,0,0,1.62,3A7.41,7.41,0,0,0,35.13,34a7.28,7.28,0,0,0,4.34-1.18,3.55,3.55,0,0,0,1.62-3V21.88h-2Z"/><path class="cls-2" d="M52,21.88H43.67V33.61h2V29.25h6a4.08,4.08,0,0,0,2.9-.94,3.55,3.55,0,0,0,1-2.72,3.8,3.8,0,0,0-1-2.7A3.47,3.47,0,0,0,52,21.88Zm-.3,5.37h-6V23.88h5.89c1.31,0,1.94.57,1.94,1.74S52.91,27.25,51.68,27.25Z"/><path class="cls-2" d="M67.91,23.1a6.88,6.88,0,0,0-4.6-1.58,7,7,0,0,0-4.62,1.58,6.1,6.1,0,0,0,0,9.28,7.66,7.66,0,0,0,9.26,0,6.12,6.12,0,0,0,0-9.3Zm-4.6,8.81a4.94,4.94,0,0,1-3.43-1.15,4.16,4.16,0,0,1,0-6,5.44,5.44,0,0,1,6.59-.15A3.87,3.87,0,0,1,68,27.73a3.92,3.92,0,0,1-1.27,3A4.87,4.87,0,0,1,63.31,31.91Z"/><path class="cls-2" d="M35,49a5,5,0,0,0,1.86-4.07,5.61,5.61,0,0,0-1.68-4.24A6.34,6.34,0,0,0,30.64,39H15.87V59.63H30.44c4.75,0,7.15-1.89,7.15-5.61C37.59,51.59,36.72,49.89,35,49ZM19.71,51.12H30.93c1.88,0,2.75.77,2.75,2.43,0,1-.33,2.25-3.22,2.25H19.71Zm12.71-4.49a2.41,2.41,0,0,1-1.73.65h-11v-4.4h11.1a2.32,2.32,0,0,1,1.69.58,2.28,2.28,0,0,1-.08,3.17Z"/><polygon class="cls-2" points="44.54 50.88 54.92 50.88 54.92 47.04 44.54 47.04 44.54 42.88 59.47 42.88 59.47 39.05 40.71 39.05 40.71 59.63 60.16 59.63 60.16 55.8 44.54 55.8 44.54 50.88"/><path class="cls-2" d="M83,50a6.47,6.47,0,0,0,1.4-4.32,6.75,6.75,0,0,0-1.71-4.84A6.2,6.2,0,0,0,77.94,39H63.52V59.63h3.84v-7.5H75.6l4.8,7.5h4.47L80,51.81A5.66,5.66,0,0,0,83,50Zm-15.6-7.13h9.88c2.2,0,3.22.89,3.22,2.81s-.94,2.6-3,2.6H67.35Z"/><polygon class="cls-2" points="99.99 50.62 91.73 39.05 87.37 39.05 87.37 59.63 91.21 59.63 91.21 44.39 99.96 56.7 108.78 44.38 108.78 59.63 112.62 59.63 112.62 39.05 108.28 39.05 99.99 50.62"/><polygon class="cls-2" points="121.04 50.88 131.42 50.88 131.42 47.04 121.04 47.04 121.04 42.88 135.97 42.88 135.97 39.05 117.21 39.05 117.21 59.63 136.66 59.63 136.66 55.8 121.04 55.8 121.04 50.88"/><path class="cls-2" d="M151.59,52.9a3.25,3.25,0,0,1-1,2.69,5.82,5.82,0,0,1-3.49.8,5.18,5.18,0,0,1-3.2-.79,3.68,3.68,0,0,1-1.15-2.66l0-.41h-3.87l0,.47a7.32,7.32,0,0,0,2.24,5.37,8.44,8.44,0,0,0,5.82,1.85,9.32,9.32,0,0,0,6.28-1.89,6.88,6.88,0,0,0,2.2-5.46V39h-3.83Z"/><path class="cls-2" d="M178.2,41.19a12,12,0,0,0-8-2.77,12.21,12.21,0,0,0-8.07,2.77A10.69,10.69,0,0,0,162,57.46a13.37,13.37,0,0,0,16.2,0,10.74,10.74,0,0,0,0-16.29Zm-2.32,13.17a8.21,8.21,0,0,1-5.73,1.95,8.32,8.32,0,0,1-5.77-1.94,7,7,0,0,1,0-10.07,9.17,9.17,0,0,1,11.09-.24A6.39,6.39,0,0,1,178,49.31,6.47,6.47,0,0,1,175.88,54.36Z"/></g></g></svg>